<svg xmlns="http://www.w3.org/2000/svg" style="display:none;">

	<!-- Main logo -->
	<symbol id="logo" Viewbox="0 0 300 63">
		<path fill="#63A70A" d="M60.3 19.1c0 9.9 3.2 15.9 9.6 15.9 4.9 0 7.4-2.5 8.7-8.9h1.9l-.3 10.8h-1.7c-.3-.7-.5-1.2-1.2-1.2-.9 0-3.7 1.7-7.8 1.7-8.9 0-14.8-5.4-14.8-18.3 0-12 6.6-18.2 15-18.2C73.4.9 76 2.4 77 2.4c.7 0 .9-.4 1.2-1.1h1.6l.3 10.6h-1.9c-1.3-6.5-3.8-8.5-8.4-8.5-6 0-9.5 4.8-9.5 15.7zM95.2 11.2c5.5 0 9 3.4 9 11 0 .7-.1 1.4-.1 2.1H89.6c0 6.3 1.6 10.1 6.2 10.1 3.1 0 4.7-1.4 5.9-4.4l2.2.8c-1.2 3.9-4.1 6.6-9 6.6-7.1 0-10.4-5-10.4-12.8 0-8.7 4.3-13.4 10.7-13.4zm4.1 10.4v-1.1c0-4.7-1.3-7-4.2-7-3.5 0-5.2 3.7-5.4 8.1h9.6zM114.3 11.7l.4 4.2c1.3-2.5 3.9-4.8 8.1-4.8 4.8 0 7 2.7 7 8.6v14.7l3 .4v2h-10.6v-2l2.9-.4V19.8c0-3.3-.6-5.3-4-5.3-3.1 0-5.8 2.3-5.8 6.4v13.5l3 .4v2h-10.7v-2l3-.4V14.1l-3-.4v-2h6.7zM137.5 14.2h-3.4v-2.5h3.4V5.2l3.4-1h1.3v7.5h5.3v2.5h-5.3v16.4c0 2.8.7 3.9 2.4 3.9s2.7-.9 3.5-4l1.9.5c-.9 4.3-2.8 6.4-6.9 6.4-3.5 0-5.7-1.8-5.7-6V14.2zM162.8 11.2c5.5 0 9 3.4 9 11 0 .7-.1 1.4-.1 2.1h-14.4c0 6.3 1.6 10.1 6.2 10.1 3.1 0 4.7-1.4 5.9-4.4l2.2.8c-1.2 3.9-4.1 6.6-9 6.6-7.1 0-10.4-5-10.4-12.8-.1-8.7 4.3-13.4 10.6-13.4zm4.1 10.4v-1.1c0-4.7-1.3-7-4.2-7-3.5 0-5.2 3.7-5.4 8.1h9.6zM187.7 34.9v2H175v-2l3-.4V14.1l-3-.4v-2h7l.4 3.9c1.3-2.6 3.3-4.5 6.7-4.5 2.6 0 4.8 1.5 4.8 4.7 0 2.8-1.4 4-3.4 4s-3.1-1.2-3-3.3l1.5-.7c.1-.2.1-.4.1-.6 0-.9-.7-1.2-1.5-1.2-2.4 0-4.8 3.7-4.8 6.7v13.8l4.9.4zM250.5 0c1.8 0 3.1.8 3.1 3.1 0 2-1 3.1-3 3.1-2.3 0-3.1-1.4-3.1-3 0-1.8.9-3.2 3-3.2z"/><path fill="#001689" d="M208 1.5c7.6 0 13.3 2.2 13.3 9.9 0 8.9-6.5 11-14.5 11h-1.7v12.1l5.6.4v2h-14.6v-2l3.8-.4V3.8l-3.8-.4v-2H208zM205.1 20h2.2c5.8 0 8.3-2.8 8.3-8.4 0-5.7-2.5-7.8-8-7.8h-2.4V20zM232.5 11.2c7.3 0 10.5 5.2 10.5 13.1 0 8-3.8 13.2-10.8 13.2-7.1 0-10.5-5.2-10.5-13 0-8.1 4.1-13.3 10.8-13.3zm-.2 2.4c-4.5 0-5.5 5-5.5 10.5 0 5.7 1 10.9 5.6 10.9 4.4 0 5.5-5 5.5-10.6 0-5.5-1-10.8-5.6-10.8zM253.4 11.7v22.8l3.5.4v2h-11.7v-2l3.5-.4V14.1l-3.5-.3v-2.1M264.5 11.7l.4 4.2c1.3-2.5 3.9-4.8 8.1-4.8 4.8 0 7 2.7 7 8.6v14.7l3 .4v2h-10.6v-2l2.9-.4V19.8c0-3.3-.6-5.3-4-5.3-3.1 0-5.8 2.3-5.8 6.4v13.5l3 .4v2h-10.7v-2l3-.4V14.1l-3-.4v-2h6.7zM286.1 14.2h-3.4v-2.5h3.4V5.2l3.4-1h1.3v7.5h5.3v2.5h-5.3v16.4c0 2.8.7 3.9 2.4 3.9s2.7-.9 3.5-4l1.9.5c-.9 4.3-2.8 6.4-6.9 6.4-3.5 0-5.7-1.8-5.7-6V14.2z"/><g fill="#001689"><path d="M35.3 34.1l-7.6-9.4 11.6-3.4c1-.3 2-.3 3 0l4.7 1.5-13 3.9 8.5 10.6-4.7-1.5c-1-.3-1.8-.9-2.5-1.7zM37.3 15.5l-11.2 4.3.3-12c0-1 .4-2 1-2.9l2.9-4-.4 13.6 12.7-4.9-2.9 4c-.6.8-1.4 1.5-2.4 1.9zM20.2 7.8l.7 12-11.3-4c-1-.3-1.8-1-2.4-1.8l-3-4L17 14.6 16.2 1l3 4c.6.8.9 1.8 1 2.8zM7.7 21.8l11.6 3-7.3 9.6c-.6.8-1.5 1.4-2.4 1.8l-4.7 1.6L13.2 27 0 23.5l4.7-1.6c1-.3 2-.4 3-.1zM17.1 38l6.5-10.1 6.9 9.9c.6.8.9 1.8.9 2.9l.1 5-7.8-11.2L16.4 46l-.1-5c0-1.2.3-2.2.8-3z"/></g><g><path fill="#15284B" d="M60 54.2h6v1h-4.9v2.5h4.6v1h-4.6v2.8h5v1H60v-8.3zM73.4 54.2h3.3c1.1 0 2 .4 2.6 1.2.6.7.8 1.7.8 2.8 0 .9-.2 1.7-.5 2.4-.6 1.3-1.6 1.9-3 1.9h-3.3v-8.3zm3.1 7.4c.4 0 .7 0 .9-.1.4-.1.8-.4 1.1-.9.2-.3.4-.8.5-1.3v-.8c0-1-.2-1.8-.6-2.4-.4-.6-1-.9-1.9-.9h-2v6.4h2zM88.6 54.2v5.2c0 .6.1 1.1.3 1.5.3.6.9.9 1.7.9 1 0 1.6-.3 2-1 .2-.4.3-.8.3-1.4v-5.2H94v4.7c0 1-.1 1.8-.4 2.4-.5 1-1.5 1.5-2.9 1.5s-2.4-.5-2.9-1.5c-.3-.6-.4-1.3-.4-2.4v-4.7h1.2zM107.3 54.8c.6.6.9 1.2 1 1.9h-1.1c-.1-.5-.4-1-.7-1.3-.4-.3-.9-.5-1.5-.5-.8 0-1.5.3-2 .9s-.7 1.5-.7 2.7c0 1 .2 1.8.7 2.4.4.6 1.1.9 2 .9.8 0 1.4-.3 1.9-1 .2-.3.4-.8.5-1.3h1.1c-.1.9-.4 1.6-1 2.2-.7.7-1.5 1.1-2.6 1.1-1 0-1.8-.3-2.4-.9-.9-.8-1.3-2-1.3-3.6 0-1.2.3-2.2 1-3 .7-.9 1.7-1.3 2.9-1.3.8 0 1.7.3 2.2.8zM117.9 54.2h1.3l3 8.3H121l-.9-2.5h-3.3l-.9 2.5h-1.2l3.2-8.3zm1.9 4.9l-1.3-3.7-1.3 3.7h2.6zM134.1 54.2v1h-2.8v7.3h-1.1v-7.3h-2.8v-1h6.7zM141.1 54.2h1.1v8.3h-1.1v-8.3zM156.6 55.4c.6.7.8 1.7.8 2.8 0 1.2-.3 2.3-.9 3.1-.7 1-1.8 1.5-3.2 1.5-1.3 0-2.3-.4-3-1.3-.7-.8-1-1.8-1-3.1 0-1.1.3-2.1.8-2.9.7-1 1.8-1.5 3.2-1.5 1.5 0 2.5.5 3.3 1.4zm-1 5.3c.4-.7.7-1.5.7-2.5s-.3-1.8-.8-2.4c-.5-.6-1.2-.9-2.1-.9-.9 0-1.6.3-2.1.9-.5.6-.8 1.5-.8 2.6 0 .9.2 1.7.7 2.3.5.6 1.2 1 2.3 1 .9.1 1.6-.3 2.1-1zM164.4 54.2h1.3l4.2 6.7v-6.7h1.1v8.3h-1.3l-4.2-6.7v6.7h-1.1v-8.3zM188.1 59.9c0 .5.1.9.3 1.2.4.6 1 .8 1.9.8.4 0 .8-.1 1.1-.2.6-.2 1-.7 1-1.3 0-.5-.1-.8-.4-1-.3-.2-.7-.4-1.3-.5l-1.1-.3c-.7-.2-1.2-.3-1.5-.5-.5-.3-.8-.9-.8-1.6 0-.7.3-1.4.8-1.8.5-.5 1.2-.7 2.1-.7.9 0 1.6.2 2.2.6.6.4.9 1.1.9 2h-1.1c-.1-.4-.2-.8-.3-1-.3-.4-.9-.7-1.7-.7-.6 0-1.1.1-1.4.4s-.4.6-.4 1 .2.7.5.9c.2.1.7.3 1.5.5l1.1.3c.5.1 1 .3 1.3.5.5.4.8 1 .8 1.7 0 .9-.3 1.6-1 2-.7.4-1.4.6-2.3.6-1 0-1.8-.3-2.4-.8-.6-.5-.9-1.2-.8-2.1h1zM207.6 55.4c.6.7.8 1.7.8 2.8 0 1.2-.3 2.3-.9 3.1-.7 1-1.8 1.5-3.2 1.5-1.3 0-2.3-.4-3-1.3-.7-.8-1-1.8-1-3.1 0-1.1.3-2.1.8-2.9.7-1 1.8-1.5 3.2-1.5 1.5 0 2.6.5 3.3 1.4zm-1 5.3c.4-.7.7-1.5.7-2.5s-.3-1.8-.8-2.4c-.5-.6-1.2-.9-2.1-.9-.9 0-1.6.3-2.1.9-.5.6-.8 1.5-.8 2.6 0 .9.2 1.7.7 2.3.5.6 1.2 1 2.3 1 .9.1 1.7-.3 2.1-1zM215.4 54.2h1.1v7.3h4.2v1h-5.3v-8.3zM228.8 54.2v5.2c0 .6.1 1.1.3 1.5.3.6.9.9 1.7.9 1 0 1.6-.3 2-1 .2-.4.3-.8.3-1.4v-5.2h1.1v4.7c0 1-.1 1.8-.4 2.4-.5 1-1.5 1.5-2.9 1.5s-2.4-.5-2.9-1.5c-.3-.6-.4-1.3-.4-2.4v-4.7h1.2zM247.7 54.2v1h-2.8v7.3h-1.1v-7.3H241v-1h6.7zM254.6 54.2h1.1v8.3h-1.1v-8.3zM270.1 55.4c.6.7.8 1.7.8 2.8 0 1.2-.3 2.3-.9 3.1-.7 1-1.8 1.5-3.2 1.5-1.3 0-2.3-.4-3-1.3-.7-.8-1-1.8-1-3.1 0-1.1.3-2.1.8-2.9.7-1 1.8-1.5 3.2-1.5 1.5 0 2.6.5 3.3 1.4zm-1 5.3c.4-.7.7-1.5.7-2.5s-.3-1.8-.8-2.4c-.5-.6-1.2-.9-2.1-.9-.9 0-1.6.3-2.1.9-.5.6-.8 1.5-.8 2.6 0 .9.2 1.7.7 2.3.5.6 1.2 1 2.3 1 1 .1 1.7-.3 2.1-1zM278 54.2h1.3l4.2 6.7v-6.7h1.1v8.3h-1.3l-4.2-6.7v6.7H278v-8.3zM292.7 59.9c0 .5.1.9.3 1.2.4.6 1 .8 1.9.8.4 0 .8-.1 1.1-.2.6-.2 1-.7 1-1.3 0-.5-.1-.8-.4-1-.3-.2-.7-.4-1.3-.5l-1.1-.3c-.7-.2-1.2-.3-1.5-.5-.5-.3-.8-.9-.8-1.6 0-.7.3-1.4.8-1.8.5-.5 1.2-.7 2.1-.7.8 0 1.6.2 2.2.6s.9 1.1.9 2h-1.1c-.1-.4-.2-.8-.3-1-.3-.4-.9-.7-1.7-.7-.6 0-1.1.1-1.4.4s-.4.6-.4 1 .2.7.5.9c.2.1.7.3 1.5.5l1.1.3c.5.1 1 .3 1.3.5.5.4.8 1 .8 1.7 0 .9-.3 1.6-1 2-.7.4-1.4.6-2.3.6-1 0-1.8-.3-2.4-.8-.6-.5-.9-1.2-.8-2.1h1z"/></g><path fill="#15284B" d="M298.9 46.3H59.7c-.3 0-.5-.2-.5-.5s.2-.5.5-.5h239.2c.3 0 .5.2.5.5s-.2.5-.5.5z"/><ellipse transform="rotate(-83.892 23.524 23.327)" fill="#63A70A" cx="23.5" cy="23.3" rx="3.1" ry="3.1"/>
	</symbol>

</svg>